<?xml version="1.0" encoding="utf-8"?>
<!-- Generator: Adobe Illustrator 27.5.0, SVG Export Plug-In . SVG Version: 6.00 Build 0)  -->
<svg version="1.1" id="Capa_1" xmlns="http://www.w3.org/2000/svg" xmlns:xlink="http://www.w3.org/1999/xlink" x="0px" y="0px"
	 viewBox="0 0 2122 2122" style="enable-background:new 0 0 2122 2122;" xml:space="preserve">
<g>
	<path style="fill:#E7C9E2;" d="M1503.403,724.296c-80.423-80.123-197.065-101.327-306.075-110.557
		c-27.189-2.295-54.474-3.691-81.763-4.19c-0.166-7.235-0.341-14.473-0.504-21.703l-0.899-36.518
		c-0.4-18.061-0.799-36.07-1.247-54.131c-0.448-19.457-0.899-38.965-1.396-58.472c-0.299-12.572-0.599-25.145-0.899-37.717
		c-0.3-13.968-0.648-27.936-0.999-41.907c-0.249-11.074-0.499-38.116-0.748-70.445c-0.1-12.373-0.2-25.542-0.349-38.862
		c-0.299-42.009-0.599-85.712-0.947-112.552c-0.1-9.031-0.251-16.165-0.351-20.655c-0.149-6.288-0.3-12.573-0.4-18.86
		c-4.217-1.143-8.492-2.066-12.799-2.833c-11.757-2.107-23.786-2.892-35.722-2.836l-0.621-0.005l-0.219,0.005
		c-2.276,0.017-4.548,0.061-6.814,0.132c-1.812,0.066-3.62,0.221-5.43,0.356c-2.512,0.185-5.011,0.446-7.505,0.77
		c-6.887,0.894-13.703,2.246-20.341,4.214c-3.362,0.992-6.655,2.151-9.922,3.347c-0.746,0.268-1.496,0.526-2.242,0.797l0.019,0.012
		l-0.779,0.283c0.599,28.238,1.147,66.952,1.598,101.227c0.3,27.491,0.499,52.085,0.499,66.355c0.2,7.732,0.397,17.51,0.548,28.636
		c0.299,16.762,0.548,36.569,0.848,56.825c0.448,34.324,0.947,70.045,1.396,95.091c0.1,5.488,0.199,10.477,0.299,14.816
		c0.351,13.819,0.651,27.69,0.948,41.51c0.799,31.73,1.498,63.41,2.246,95.139c0.07,3.459,0.153,6.918,0.236,10.378
		c-72.935,4.641-145.421,15.717-216.31,33.276c-18.258,4.541-36.219,9.829-54.18,15.315c-31.629,9.778-63.11,21.004-91.2,38.465
		c-36.918,22.95-76.479,63.361-72.19,110.309c0.439,4.774,1.396,9.364,2.653,13.836c-0.241-0.858-0.546-1.693-0.758-2.563
		c0.499,29.386,1.247,58.821,2.295,88.155c2.046,62.014,63.861,846.434,80.871,937.183c3.842,20.207,8.034,40.512,17.162,59.12
		c8.731,17.91,22.65,32.129,38.516,43.854c15.615,11.573,33.176,20.555,50.837,28.587c18.909,8.731,38.365,16.214,58.221,22.45
		c74.935,23.547,154.41,30.034,232.687,29.286c68.199,0.648,136.798-4.241,203.002-21.004
		c39.812-10.078,78.925-24.548,114.898-44.504c16.663-9.228,33.025-20.304,45.649-34.723c13.569-15.415,21.851-33.875,26.989-53.58
		c5.539-21.004,8.83-42.657,12.672-64.058c4.141-22.701,73.091-846.433,75.434-928.503c0.251-9.627,0.548-19.257,0.748-28.886
		c0.3-11.374,0.499-22.75,0.65-34.124c0-1.091-0.151-2.131-0.497-3.077C1547.25,782.805,1530.47,751.294,1503.403,724.296z"/>
	<path style="fill:#FFFFFD;" d="M1541.72,819.834c-0.151,11.374-0.351,22.75-0.65,34.124c-0.2,9.629-0.497,19.259-0.748,28.886
		c-80.372,74.786-187.635,105.268-297.992,124.028c-66.453,11.274-133.704,17.462-201.107,18.458
		c-133.256,1.846-346.236-14.219-457.84-116.594c-1.048-29.334-1.796-58.769-2.295-88.155c9.53,39.015,48.095,66.703,83.617,81.122
		c20.903,8.48,42.555,15.864,64.706,22.299c72.492,26.992,154.211,34.923,232.636,37.668h0.1c28.538,1.995,56.825,3.242,84.516,4.09
		c79.025,2.295,159.297,1.846,237.774-7.832c37.569-4.592,74.835-11.824,110.457-23.349c44.453-14.419,91.649-33.776,120.832-67.851
		c14.618-17.062,22.65-33.824,25.495-49.99C1541.569,817.688,1541.72,818.736,1541.72,819.834z"/>
	<path style="fill:#A9A1CF;" d="M1122.594,914.925c-25.493,8.58-53.283,12.321-79.624,7.384c-7.883-1.496-15.615-3.893-22.85-7.184
		c-0.1-3.593-0.149-7.235-0.248-10.826c-0.748-31.98-1.498-63.96-2.246-95.938c-0.1-3.793-0.149-7.534-0.248-11.325
		c-0.351-14.719-0.699-29.386-1.047-44.104c-0.699-31.829-1.447-63.71-2.195-95.539c-0.251-11.274-0.55-22.551-0.799-33.824
		c-0.151-7.335-0.349-14.668-0.499-22.003c-0.748-31.729-1.447-63.41-2.246-95.139c-0.297-13.819-0.597-27.69-0.948-41.51
		c-0.1-4.339-0.2-9.328-0.299-14.816c-0.448-25.045-0.948-60.767-1.396-95.091c-0.3-20.256-0.548-40.063-0.848-56.825
		c-0.151-11.126-0.349-20.904-0.548-28.636c0-14.27-0.199-38.864-0.499-66.355c-0.451-34.275-0.999-72.989-1.598-101.227
		c4.241-1.595,8.533-3.143,12.923-4.439c10.775-3.193,22-4.94,33.276-5.34c18.758-0.599,37.966,0.599,56.175,5.537
		c0.1,6.287,0.251,12.572,0.4,18.86c0.1,4.49,0.251,11.624,0.351,20.655c0.348,26.84,0.648,70.542,0.947,112.552
		c0.149,13.321,0.248,26.49,0.349,38.862c0.249,32.329,0.499,59.371,0.748,70.445c0.351,13.971,0.699,27.939,0.999,41.907
		c0.299,12.572,0.599,25.145,0.899,37.717c0.497,19.507,0.948,39.015,1.396,58.472c0.448,18.061,0.848,36.07,1.247,54.131
		l0.899,36.518c0.548,24.297,1.096,48.643,1.695,72.94c0.3,13.569,0.6,27.14,0.948,40.709c0.248,11.824,0.548,23.649,0.799,35.474
		c0.748,33.325,1.547,66.652,2.295,99.928c0.1,4.941,0.249,9.93,0.348,14.867C1121.646,872.867,1122.094,893.871,1122.594,914.925z"
		/>
	<path style="fill:#6A679B;" d="M1014.77,104.908c5.291,1.167,10.594,2.251,15.973,2.928c10.662,1.343,21.505,1.43,32.234,0.979
		c10.479-0.441,20.769-1.932,30.696-5.406c4.129-1.444,8.967-3.152,13.055-5.688c-18.158-4.957-37.352-6.143-56.097-5.525
		c-11.259,0.373-22.457,2.156-33.261,5.357c-4.097,1.213-8.137,2.658-12.156,4.119
		C1008.11,103.373,1011.445,104.175,1014.77,104.908z"/>
	<path style="fill:#FAF5BF;" d="M1441.183,1213.924c-8.234,77.666-17.189,155.282-26.862,232.755
		c-8.521,68.375-17.62,136.606-27.291,204.79c-4.646,32.942-9.243,65.934-14.461,98.732c-4.358,27.486-9.673,55.064-19.201,80.969
		c-9.863,26.623-23.559,51.474-43.478,70.436c-21.354,20.348-46.923,33.707-73.259,44.289
		c-53.963,21.642-112.618,29.639-169.741,23.797c-64.401,6.561-130.191-4.597-189.66-32.56c-24.755-11.635-48.65-27.438-66.46-49.99
		c-17.286-21.88-28.731-48.024-36.631-75.509c-7.756-27.003-12.019-55.11-16.136-83.025c-5.074-34.285-10.007-68.567-14.797-102.852
		c-19.152-136.942-35.958-274.268-50.514-411.833c-0.192-2.01,0.095-3.973,0.765-5.744c9.72,25.043,35.242,39.023,58.847,47.21
		c26.718,9.289,55.256,13.934,82.979,18.58c29.401,4.93,58.944,8.762,88.581,11.539c117.982,11.014,237.111,5.937,354.805-6.465
		c28.728-3.064,57.792-6.655,85.373-15.705c23.749-7.756,48.17-19.92,64.928-39.454c4.263-4.979,8.093-10.631,11.013-16.662
		C1440.944,1209.28,1441.424,1211.531,1441.183,1213.924z"/>
	<path style="fill:#FAF5BF;" d="M1439.853,1135.749c-14.921-23.695-47.488-30.784-72.275-37.554
		c-106.445-29.079-217.786-34.991-327.42-29.939c-60.073,2.769-120.018,9.583-179.757,16.431
		c-45.902,5.262-96.781,8.643-136.167,36.07c-20.348,14.17-40.613,38.726-31.664,65.705c8.852,26.672,35.315,41.32,59.759,49.797
		c26.706,9.264,55.232,13.912,82.981,18.577c29.361,4.933,58.916,8.726,88.545,11.496c117.997,11.023,237.131,5.946,354.823-6.465
		c28.711-3.028,57.766-6.636,85.366-15.668c23.776-7.783,48.165-19.917,64.918-39.459
		C1444.951,1186.087,1454.111,1158.392,1439.853,1135.749z"/>
	<path style="fill:#847DB5;" d="M936.522,1806.747c-3.432-3.586-7.532-6.76-11.881-9.142c-3.632-1.991-7.556-3.464-11.425-4.909
		c-0.855-0.319-1.732-0.577-2.624-0.775c-4.964-1.096-10.258-2.083-15.388-1.764c-1.705,0.105-3.486,0.246-5.279,0.424
		c-1.347-0.146-2.699-0.269-4.085-0.273c-3.316,0.446-6.631,0.891-9.946,1.337c-6.339,1.779-11.841,4.984-16.511,9.622
		c-6.098,6.926-8.775,11.221-11.73,19.949c-1.518,4.487-2.124,9.442-1.973,14.163c0.329,10.09,2.943,18.728,7.785,27.571
		c0.848,1.547,1.842,2.989,2.904,4.395c2.821,3.732,5.739,7.929,9.164,11.296c3.374,3.318,7.337,6.125,11.123,8.911
		c4.224,3.108,9.096,4.801,13.975,6.755c4.5,1.8,9.64,2.17,14.363,2.463c8.068,0.499,16.134-2.251,23.159-5.888
		c7.308-3.783,11.954-9.517,16.582-16.009c0.543-0.763,1.008-1.533,1.417-2.378c1.735-3.593,3.657-7.554,4.685-11.547
		c2.492-9.683,2.412-19.49-0.034-29.171C948.437,1822.413,943.165,1813.682,936.522,1806.747z"/>
	<path style="fill:#847DB5;" d="M1135.621,1704.855c-3.104-11.486-10.979-20.587-20.748-26.986
		c-7.744-5.074-16.887-7.006-25.975-7.472c-3.988-0.202-7.949,0.256-11.834,1.13c-5.072,0.604-9.876,2.187-14.395,4.808
		c-6.138,2.685-11.968,5.993-17.376,9.951c-7.608,5.571-15.118,11.354-21.422,18.401c-3.8,4.249-7.603,8.707-10.58,13.545
		c-1.464,2.38-2.427,5.047-3.506,7.605c-1.181,2.804-2.484,5.449-3.089,8.424c-1.771,8.694-2.215,16.121,0.193,24.791
		c1.924,6.931,3.905,9.705,7.785,14.729c3.681,4.765,7.671,8.694,13.184,11.549c11.162,5.781,22.809,6.741,35.001,3.788
		c6.166-1.493,12.755-4.787,18.339-7.213c6.112-2.655,11.985-5.808,17.527-9.515c5.038-3.367,9.8-7.174,14.543-10.926
		c2.682-2.122,5.367-4.338,7.737-6.811C1133.848,1741.259,1140.6,1723.288,1135.621,1704.855z"/>
	<path style="fill:#847DB5;" d="M1232.02,1808.525c-0.94-1.15-1.954-2.166-3.101-3.113c-3.413-2.821-7.025-6.012-11.052-8.058
		c-4.083-2.075-8.426-3.99-12.821-5.333c-5.934-1.814-12.402-2.65-18.599-2.523c-5.106,0.102-10.251,1.013-15.264,1.858
		c-0.882,0.149-1.737,0.424-2.609,0.626c-0.458-0.061-0.913-0.122-1.371-0.185c-6.755,0.022-13.05,1.725-18.887,5.108
		c-1.072,0.521-2.056,1.135-3.02,1.834c-3.357,2.431-7.116,4.879-9.915,8.034c-2.682,3.023-5.257,6.317-7.474,9.698
		c-1.525,2.329-2.462,5.016-3.535,7.554c-1.04,2.465-2.263,4.952-2.943,7.566c-1.111,4.275-1.506,8.84-1.937,13.198
		c-0.543,5.5,0.602,11.225,1.532,16.574c0.205,1.182,0.507,2.344,0.901,3.476c1.408,4.042,3.05,8.183,5.106,11.959
		c1.99,3.661,4.899,6.93,7.503,10.114c0.911,1.114,1.866,2.163,2.96,3.104c4.197,3.62,8.716,7.437,13.851,9.737
		c3.947,1.766,7.973,3.72,12.163,4.906c2.918,0.826,5.966,1.091,8.957,1.493c4.519,0.607,8.656,1.193,13.172,0.646
		c5.842-0.711,11.761-1.128,17.261-3.311c4.017-1.593,8.256-3.116,12.032-5.291c3.822-2.203,7.259-5.194,10.655-7.949
		c4.409-3.574,7.764-8.473,11.04-13.001c3.364-4.653,5.542-10.467,7.323-15.773c0.419-1.242,0.684-2.504,0.903-3.793
		c0.738-4.334,1.727-9.006,1.508-13.479c-0.477-9.681-2.458-16.534-6.677-25.164
		C1237.796,1815.175,1234.692,1811.789,1232.02,1808.525z"/>
	<path style="fill:#847DB5;" d="M1335.934,1683.137c-4.945-2.772-10.577-5.281-16.214-6.419c-5.837-1.179-12.526-2.302-18.638-1.713
		c-6.692,0.648-13.486,1.467-19.924,3.496c-2.205,0.697-4.37,1.511-6.526,2.353c-1.55,0.219-3.099,0.509-4.638,0.955
		c-15.766,4.567-29.471,17.82-32.818,34.239c-1.749,8.575-2.302,17.471,0.594,25.936c3.303,9.644,6.514,14.668,13.013,22.414
		c2.814,3.352,6.19,5.859,9.649,8.531c3.457,2.672,6.767,5.298,10.723,7.179c10.619,5.047,21.627,8.835,33.622,8.351
		c10.881-0.441,22.74-3.035,31.705-9.571c6.694-4.884,9.942-7.759,14.699-13.917c4.735-6.126,6.685-10.119,9.625-17.904
		c3.659-9.693,3.647-22.326,0.563-32.166C1357.198,1701.595,1348.165,1689.992,1335.934,1683.137z"/>
	<path style="fill:#847DB5;" d="M962.512,1610.395c-1.019-1.211-2.098-2.253-3.323-3.257c-7.551-6.185-13.486-9.834-22.908-12.994
		c-15.824-5.308-32.255-1.542-46.794,5.372c-6.163,2.928-11.454,7.406-16.767,11.605c-1.228,0.969-2.404,1.997-3.584,3.02
		c-9.201,6.054-17.951,14.536-22.789,24.236c-4.648,9.316-6.48,15.891-7.323,26.232c-0.127,1.578-0.085,3.091,0.073,4.667
		c0.463,4.638,0.821,9.6,2.339,14.065c5.924,17.435,18.363,30.799,36.231,36.299c9.642,2.969,18.882,2.207,28.582,0.428
		c6.599-1.208,12.88-4.243,18.911-7.027c9.072-4.188,17.33-10.531,24.716-17.15c7.294-6.536,13.856-14.638,18.738-23.087
		c9.508-16.46,10.287-35.469,1.366-52.297C968.042,1616.856,965.145,1613.531,962.512,1610.395z"/>
	<path style="fill:#847DB5;" d="M848.398,1572.98c3.754-4.721,7.63-9.476,10.806-14.633c4.704-7.637,8.597-16.253,11.045-24.85
		c6.721-23.6,0.346-52.869-22.704-65.325c-16.222-8.762-35.663-8.546-51.476,1.211c-10.957,6.76-18.92,16.032-26.049,26.599
		l-0.292,0.526l-0.589,0.782c-1.82,2.355-3.532,4.363-4.806,6.991c-4.475,9.216-5.919,14.74-6.68,25.045
		c-0.214,2.885,0.385,5.786,0.765,8.619c0.419,3.118,0.665,6.292,1.624,9.305c3.65,11.437,10.049,22.221,18.614,30.687
		c2.999,2.967,6.429,5.851,10.053,7.888c5.847,3.282,10.514,4.707,16.784,5.55c6.441,0.867,10.772,0.811,17.644-0.916
		c4.029-1.011,8.524-3.021,12.068-5.54C840.454,1581.192,844.532,1577.842,848.398,1572.98z"/>
	<path style="fill:#847DB5;" d="M1036.962,1575.767c0.938,9.664,2.46,15.844,6.926,24.672c2.638,5.216,6.521,10.19,10.923,14.036
		c4.061,3.549,8.458,7.284,13.427,9.596c9.559,4.446,15.786,6.297,26.468,6.913c11.769,0.679,24.716-3.359,34.816-9.179
		c9.961-5.739,20.029-14.979,25.437-25.245c4.051-7.691,7.023-16.648,6.385-25.464c-0.619-8.573-1.986-13.993-6.136-21.627
		c-1.688-3.108-3.869-5.776-6.29-8.207c-1.457-7.081-4.594-13.841-10.007-18.811c-6.923-6.355-16.709-11.863-26.458-10.96
		c-10.034,0.933-20.556,1.52-30.124,4.897c-11.114,3.922-22.4,9.549-30.063,18.848c-6.404,7.773-9.63,12.733-12.977,22.338
		C1037.296,1563.29,1036.377,1569.74,1036.962,1575.767z"/>
	<path style="fill:#847DB5;" d="M1371.271,1519.207c-1.099-4.682-3.452-9.457-5.328-13.651c-2.636-5.891-7.009-11.023-11.04-15.949
		c-4.765-5.817-10.691-10.792-16.604-15.403c-3.822-2.979-7.596-6.204-11.754-8.748c-4.202-2.572-9.393-4.592-13.783-6.207
		c-3.298-1.213-6.519-1.506-10.036-1.978c-5.734-0.77-8.212-0.724-13.941,0.046c-3.394,0.458-6.351,0.699-9.469,1.939
		c-3.459,1.374-7.167,2.638-10.401,4.524c-3.187,1.856-6.105,4.416-8.933,6.743c-3.501,2.88-6.358,6.733-8.675,10.548
		c-1.922,3.165-3.233,6.874-4.529,10.312c-0.309,0.818-0.565,1.588-0.733,2.453c-1.559,4.972-1.781,9.946-0.667,14.921
		c0.224,4.979,1.705,9.615,4.441,13.91c0.699,1.298,1.498,2.495,2.351,3.64c0.955,11.132,3.832,21.537,9.167,31.588
		c0.738,1.393,1.586,2.714,2.509,3.99c2.55,3.523,5.15,7.332,8.314,10.392c3.008,2.904,6.536,5.408,9.905,7.825
		c1.087,0.779,2.198,1.503,3.383,2.127c3.839,2.019,7.981,3.671,12.034,5.159c1.257,0.46,2.531,0.853,3.837,1.141
		c4.241,0.935,8.662,1.42,12.964,1.829c1.398,0.132,2.802,0.186,4.207,0.103c4.29-0.258,8.655-0.896,12.87-1.698
		c1.333-0.254,2.609-0.653,3.873-1.135c8.77-3.333,14.497-6.36,21.547-12.765c3.106-2.821,5.608-6.553,7.983-9.937
		c1.759-2.506,2.738-5.34,3.929-8.163c1.267-2.996,2.497-5.584,3.033-8.733c0.809-4.784,1.856-9.89,1.508-14.806
		C1372.903,1528.576,1372.34,1523.765,1371.271,1519.207z"/>
	<path style="fill:#847DB5;" d="M1115.702,1426.331c1.087,3.469,2.721,7.099,4.31,10.351c0.304,0.621,0.629,1.208,1.004,1.793
		c1.836,2.857,4.292,6.024,6.572,8.514c0.465,0.509,0.94,0.982,1.462,1.435c3.057,2.66,6.387,5.535,10.036,7.43
		c3.084,1.6,6.76,3.052,10.022,4.251c0.66,0.241,1.321,0.461,2.003,0.629c4.183,1.028,8.667,1.515,12.962,1.795
		c1.35,0.088,2.673-0.01,4.012-0.166c4.258-0.497,8.818-0.701,12.955-2.039c4.205-1.359,8.438-3.15,12.324-5.25
		c3.988-2.151,7.474-5.286,10.996-8.058c1.274-1.004,2.495-2.048,3.644-3.191c4.297-4.271,7.868-9.376,11.527-14.149
		c6.064-7.905,10.565-15.656,13.83-25.262c0.475-1.395,0.787-2.806,1.018-4.261c0.701-4.443,1.747-9.193,1.476-13.766
		c-0.258-4.422-0.755-9.055-1.856-13.344c-0.17-0.663-0.392-1.301-0.631-1.939c-1.306-3.479-2.697-7.189-4.485-10.465
		c-1.07-1.961-2.721-3.798-4.022-5.483c-1.279-1.651-2.672-3.773-4.29-5.301c-2.672-2.521-5.861-4.838-8.864-6.913
		c-0.717-0.497-1.438-0.919-2.222-1.299c-3.915-1.895-8.2-4.063-12.575-4.852c-4.436-0.802-9.26-1.762-13.851-1.525
		c-4.665,0.239-9.428,0.923-14.007,1.885c-1.627,0.341-3.225,0.811-4.795,1.357c-6.058,2.117-12.036,4.716-17.741,7.676
		c-4.36,2.353-7.859,5.564-10.497,9.639c-1.092,1.191-2.02,2.475-2.877,3.803c-1.588,2.015-3.116,4.078-4.587,6.117
		c-1.598,2.209-2.911,4.594-4.042,7.074c-2.426,5.328-4.753,10.763-6.645,16.317c-1.043,3.064-2.01,6.158-2.531,9.359
		c-0.733,4.485-1.725,9.213-1.613,13.81c0.093,3.81,0.853,7.71,1.44,11.459C1115.3,1424.633,1115.439,1425.486,1115.702,1426.331z"
		/>
	<path style="fill:#847DB5;" d="M920.537,1456.484c4.604,4.017,9.588,8.056,15.159,10.682c9.6,4.526,17.435,6.597,28.051,7.435
		c13.54,1.07,28.346-3.298,40.022-10.002c11.566-6.645,22.838-17.512,28.499-29.71c4.392-9.466,6.524-16.555,7.035-27.123
		c0.322-6.677-0.729-13.854-3.006-20.168c-2.068-5.739-4.431-11.634-8.049-16.601c-6.129-8.417-11.159-13.617-19.763-19.564
		c-11.381-7.866-27.457-11.69-41.174-10.144c-5.04,0.568-10.624,1.079-15.617,2.575c-4.638,1.389-9.135,3.457-13.501,5.454
		c-6.718,3.072-12.664,7.844-18.153,12.699c-3.786,3.349-6.672,8.27-8.543,13.505c-4.076,5.693-7.15,11.362-9.25,18.843
		c-2.816,10.012-2.324,18.75-0.677,28.784C903.567,1435.337,911.277,1448.401,920.537,1456.484z"/>
	<path style="fill:#847DB5;" d="M792.674,1402.504c0.806,0.054,1.615,0.056,2.419,0.007c3.929-0.239,7.998-0.867,11.861-1.552
		c4.606-0.814,9.564-3.247,13.444-5.133c4.051-1.971,7.737-5.162,10.989-8.066c0.558-0.497,1.038-1.05,1.511-1.625
		c2.402-2.916,5.098-5.922,6.913-9.272c1.788-3.301,3.213-6.838,4.38-10.411c0.173-0.526,0.285-1.058,0.393-1.603
		c0.633-3.25,1.218-7.347,1.432-10.656c0.365-5.583-0.427-11.542-2.278-16.821c-3.376-9.642-7.476-17.137-14.626-24.55
		c-4.387-4.546-9.727-8.555-15.318-11.547c-4.558-2.439-9.464-4.339-14.271-6.193c-1.868-0.721-3.776-1.347-5.7-1.898
		c-4.19-1.201-8.465-2.058-12.757-2.787c-4.975-1.559-9.949-1.783-14.921-0.67c-4.979,0.226-9.617,1.708-13.912,4.441
		c-4.36,2.351-7.861,5.564-10.499,9.637c-3.306,3.615-5.539,7.856-6.697,12.726c-0.445,3.315-0.891,6.631-1.337,9.946
		c0.005,1.009,0.119,1.988,0.197,2.974c-0.511,1.311-0.957,2.651-1.276,4.042c-0.443,3.315-0.889,6.633-1.335,9.948
		c0.019,6.753,1.722,13.048,5.108,18.884c2.166,3.771,4.392,7.486,7.016,10.96c2.874,3.808,5.944,8.243,9.486,11.686
		c0.721,0.702,1.479,1.361,2.261,1.997c3.142,2.558,6.35,5.24,9.78,7.425C773.466,1399.829,782.745,1401.854,792.674,1402.504z"/>
	<path style="fill:#847DB5;" d="M1404.255,1319.774c-0.227-4.979-1.705-9.615-4.441-13.91c-5.15-7.99-12.821-15.023-22.361-17.196
		c-3.315-0.445-6.631-0.891-9.946-1.337c-6.755,0.022-13.05,1.725-18.887,5.108c-7.703,3.71-14.187,8.748-20.92,14.015
		c-4.127,3.228-7.964,6.763-11.393,10.728c-5.439,6.29-10.765,13.077-14.806,20.401c-5.425,9.827-8.022,18.845-8.755,29.993
		c-0.07,1.081-0.005,2.119,0.107,3.193c0.407,3.961,0.709,8.163,1.846,12.002c1.06,3.569,2.68,7.449,4.682,10.774
		c3.688,6.124,6.197,8.356,11.233,12.246c1.471,1.135,3.135,2.599,4.826,3.63c2.584,1.579,6.803,3.157,9.671,4.144
		c4.158,1.43,8.726,1.947,13.087,2.053c5.756,0.144,11.863-0.757,17.25-2.909c4.811-1.922,10.088-3.837,14.458-6.823
		c4.626-3.159,9.393-6.607,13.252-10.726c7.625-8.146,13.069-17.038,16.495-27.656c2.54-7.876,3.135-17.829,1.646-26.541
		c0.977-1.966,1.762-4.044,2.29-6.271C1405.146,1329.723,1405.368,1324.749,1404.255,1319.774z"/>
	<path style="fill:#847DB5;" d="M1091.042,1873.248c-1.184-5.038-3.323-10.088-6.117-14.441c-2.078-3.237-4.631-6.455-7.147-9.342
		c-0.687-0.787-1.403-1.476-2.198-2.151c-2.874-2.448-5.997-5.155-9.316-7.028c-0.433-0.246-0.879-0.445-1.33-0.655
		c-3.169-1.484-6.682-3.177-10.051-4.166c-3.942-1.157-8.231-1.644-12.275-1.747c-0.619-0.017-1.208,0.01-1.822,0.054
		c-3.598,0.251-7.664,0.728-11.189,1.554c-8.524,2-14.899,6.565-21.413,12.058c-5.834,4.918-10.307,11.737-13.939,18.433
		c-4.724,8.709-6.436,19.164-3.774,28.833c0.305,1.277,0.692,2.505,1.143,3.695c-0.244,2.166-0.385,4.334-0.358,6.446
		c0.024,2.034,0.499,4.363,0.745,6.195c0.239,1.771,0.429,4.215,0.882,6.185c0.906,3.946,2.819,7.688,4.57,11.289
		c5.515,11.333,17.525,20.767,29.686,23.885c8.163,2.092,15.688,2.02,23.848-0.044c2.782-0.704,6.899-2.739,9.51-3.964
		c0.585-0.275,1.128-0.538,1.683-0.876c3.364-2.056,6.753-4.566,9.469-7.508c5.325-5.769,9.087-12.007,12.254-19.047
		c2.236-4.97,4.611-10.014,6.212-15.254c1.652-5.406,2.319-11.284,2.663-16.852c0.078-1.257,0.031-2.502-0.075-3.757
		C1092.372,1881.17,1091.936,1877.053,1091.042,1873.248z"/>
	<path style="fill:#5E5A8D;" d="M853.431,1113.386c0.704-0.512,1.396-0.996,1.988-1.367
		C853.777,1113.045,853.258,1113.415,853.431,1113.386z"/>
	<path style="fill:#5E5A8D;" d="M894.045,1122.312c-2.178-3.671-6.265-8.156-10.131-10.163c-2.251-1.169-4.57-2.309-7.031-2.974
		c-4.794-1.291-10.039-1.264-14.823,0.054c-1.34,0.368-8.11,4.071-8.628,4.158c-1.318,0.959-2.699,2.053-3.661,2.945
		c-2.112,1.949-3.73,4.402-5.367,6.758c-0.955,1.376-1.783,2.843-2.482,4.363c-1.326,2.879-2.621,5.854-3.64,8.896
		c-2.154,4.896-3.079,10.102-3.498,15.559c-0.253,3.313,0.558,7.447,1.055,10.373c0.59,3.459,2.241,6.855,3.681,9.941
		c1.357,2.911,3.742,6.107,5.8,8.198c1.83,1.859,3.898,3.537,6.153,4.852c2.092,1.221,4.441,2.178,6.772,2.811
		c5.187,1.413,6.553,1.06,10.987,0.463c4.355-0.585,5.508-0.594,10.068-3.225c1.902-1.101,6.263-4.931,5.603-4.288
		c1.915-1.868,3.571-4.043,4.955-6.336c1.812-3.003,3.177-6.999,4.377-10.014c1.191-2.996,2.114-6.088,2.711-9.257
		c0.685-3.625,1.143-7.315,1.52-10.984c0.173-1.679,0.295-3.386,0.253-5.074c-0.08-3.262-0.409-6.648-1.476-9.749
		C896.566,1127.649,895.358,1124.526,894.045,1122.312z"/>
	<path style="fill:#5E5A8D;" d="M1257.554,1116.256c0.604-0.629,1.201-1.228,1.718-1.696
		C1257.837,1115.859,1257.391,1116.314,1257.554,1116.256z"/>
	<path style="fill:#5E5A8D;" d="M1307.325,1138.957c-0.122-1.681-0.302-3.386-0.638-5.04c-0.651-3.198-1.564-6.475-3.157-9.34
		c-1.011-1.822-2.745-4.684-4.427-6.636c-2.786-3.235-7.595-6.933-11.751-8.233c-2.424-0.76-4.906-1.476-7.445-1.701
		c-4.945-0.431-10.105,0.512-14.584,2.643c-1.257,0.599-7.275,5.427-7.769,5.606c-1.13,1.174-2.297,2.495-3.091,3.539
		c-1.737,2.288-2.901,4.984-4.1,7.591c-0.701,1.52-1.259,3.111-1.683,4.731c-0.801,3.064-1.557,6.221-2.026,9.393
		c-1.267,5.2-1.267,10.487-0.724,15.931c0.329,3.306,1.849,7.235,2.85,10.029c1.184,3.301,3.406,6.356,5.364,9.145
		c1.844,2.628,4.751,5.359,7.143,7.057c2.126,1.511,4.455,2.802,6.906,3.7c2.275,0.836,4.755,1.369,7.16,1.586
		c5.352,0.483,6.636-0.105,10.899-1.466c4.185-1.338,5.32-1.547,9.347-4.936c1.683-1.415,5.306-5.949,4.77-5.199
		c1.559-2.175,2.809-4.606,3.771-7.106c1.26-3.276,1.903-7.447,2.558-10.626c0.651-3.16,1.018-6.363,1.053-9.588
		C1307.788,1146.348,1307.595,1142.636,1307.325,1138.957z"/>
	<path style="fill:#5E5A8D;" d="M1138.684,1144.509c-7.313,0-12.816,5.995-13.087,13.087c-0.592,15.473-4.034,31.637-13.766,44.109
		c-7.714,9.888-19.442,16.563-30.674,16.789c-11.608,0.231-23.352-4.28-31.084-13.788c-9.31-11.452-11.659-27.734-13.924-41.966
		c-1.113-6.987-9.827-10.865-16.099-9.142c-7.44,2.046-10.258,9.094-9.14,16.1c2.409,15.128,5.554,30.582,13.589,43.87
		c7.905,13.077,19.944,22.424,34.265,27.532c30.115,10.74,61.332-3.759,78.065-29.661c10.292-15.929,14.231-35.137,14.945-53.844
		C1152.043,1150.526,1145.563,1144.509,1138.684,1144.509z"/>
	<path style="fill:#5E5A8D;" d="M836.952,1066.773c1.8,2.796,4.485,5.254,7.82,6.015c3.308,0.752,7.179,0.648,10.085-1.318
		c0.748-0.507,1.564-0.877,2.363-1.281c0.57-0.176,1.142-0.327,1.722-0.456c0.718-0.037,1.435-0.037,2.151,0l0.719,0.144
		c3.311,0.867,7.118,0.417,10.085-1.318c1.525-0.823,2.75-1.946,3.671-3.372c1.157-1.264,1.939-2.748,2.343-4.451
		c0.763-3.35,0.599-7.111-1.32-10.085c-1.834-2.848-4.47-5.138-7.82-6.015c-0.765-0.2-1.537-0.358-2.319-0.477
		c-1.786-0.27-3.603-0.565-5.418-0.656c-2.646-0.129-5.323,0.297-7.919,0.724c-1.515,0.249-2.994,0.665-4.419,1.227
		c-2.434,0.962-4.875,1.942-7.05,3.413c-1.525,0.821-2.748,1.947-3.671,3.369c-1.157,1.264-1.939,2.748-2.343,4.451
		c-0.546,1.742-0.624,3.481-0.234,5.221C835.478,1063.65,835.994,1065.272,836.952,1066.773z"/>
	<path style="fill:#5E5A8D;" d="M1255.633,1055.703c3.42,0.78,6.799,0.434,9.915-1.242l0.967-0.29l1.257,0.002
		c0.526,0.122,1.045,0.268,1.559,0.431l0.633,0.341l1.213,1.198c1.703,2.76,4.572,4.987,7.7,5.847
		c3.133,0.865,7.303,0.475,10.085-1.318c2.794-1.802,5.255-4.485,6.015-7.822c0.779-3.425,0.509-7.002-1.32-10.085
		c-8.261-13.932-27.062-18.809-41.15-10.982c-2.836,1.576-5.16,4.719-6.015,7.822c-0.862,3.133-0.472,7.303,1.321,10.083
		C1249.613,1052.485,1252.297,1054.943,1255.633,1055.703z"/>
	<path style="fill:#847DB5;" d="M1108.525,249.793c-31.58,20.453-65.705,36.918-101.426,48.392
		c-0.151-11.126-0.349-20.904-0.548-28.636c0-14.27-0.199-38.864-0.499-66.355l1.048-0.4c26.791-11.822,52.184-26.589,75.683-44.051
		c8.582-6.835,16.862-13.97,24.796-21.503C1107.926,164.081,1108.226,207.784,1108.525,249.793z"/>
	<path style="fill:#847DB5;" d="M1110.62,401.007c-31.481,20.706-65.556,37.369-101.278,49.094
		c-0.448-25.045-0.948-60.767-1.396-95.091c26.492-11.725,51.585-26.392,74.835-43.654c9.03-7.184,17.761-14.767,26.092-22.701
		c0.249,32.329,0.499,59.371,0.748,70.445C1109.972,373.071,1110.321,387.039,1110.62,401.007z"/>
	<path style="fill:#847DB5;" d="M1114.162,551.328c-31.43,21.052-65.556,38.114-101.326,50.238
		c-0.748-31.729-1.447-63.41-2.246-95.139c25.495-11.525,49.741-25.744,72.192-42.458c9.978-7.931,19.608-16.362,28.738-25.244
		c0.497,19.507,0.948,39.015,1.396,58.472C1113.363,515.257,1113.762,533.267,1114.162,551.328z"/>
	<path style="fill:#847DB5;" d="M1117.704,701.495c-31.43,21.503-65.556,38.964-101.375,51.437
		c-0.699-31.829-1.447-63.71-2.195-95.539c24.195-11.225,47.244-24.894,68.648-40.811c11.325-8.979,22.102-18.557,32.28-28.736
		c0.548,24.297,1.096,48.643,1.695,72.94C1117.056,674.355,1117.356,687.926,1117.704,701.495z"/>
	<path style="fill:#847DB5;" d="M1121.146,851.763c-31.33,21.802-65.405,39.664-101.276,52.536
		c-0.748-31.98-1.498-63.96-2.246-95.938c22.95-10.877,44.752-23.997,65.157-39.164c12.572-10.029,24.545-20.755,35.722-32.228
		c0.748,33.325,1.547,66.652,2.295,99.928C1120.898,841.837,1121.047,846.826,1121.146,851.763z"/>
</g>
</svg>
